<mxfile host="Electron" modified="2024-09-20T07:04:16.953Z" agent="Mozilla/5.0 (X11; Linux x86_64) AppleWebKit/537.36 (KHTML, like Gecko) draw.io/24.2.5 Chrome/120.0.6099.109 Electron/28.1.0 Safari/537.36" etag="uSsB9BgO9hp-zpEGa9m-" version="24.2.5" type="device">
  <diagram name="Page-1" id="Yt88l5ErCeFlZv7NHSy2">
    <mxGraphModel dx="1420" dy="821" grid="1" gridSize="10" guides="1" tooltips="1" connect="1" arrows="1" fold="1" page="1" pageScale="1" pageWidth="850" pageHeight="1100" math="0" shadow="0">
      <root>
        <mxCell id="0" />
        <mxCell id="1" parent="0" />
        <mxCell id="8S_n0liuGnDVH2clSiCz-1" value="" style="shape=partialRectangle;whiteSpace=wrap;html=1;bottom=1;right=1;left=1;top=0;fillColor=none;routingCenterX=-0.5;rounded=1;shadow=0;strokeColor=#6c8ebf;strokeWidth=1;fontFamily=Ubuntu;fontSize=16;fontStyle=0;" vertex="1" parent="1">
          <mxGeometry x="120" y="190" width="80" height="130" as="geometry" />
        </mxCell>
        <mxCell id="8S_n0liuGnDVH2clSiCz-2" value="" style="shape=partialRectangle;whiteSpace=wrap;html=1;bottom=1;right=1;left=1;top=0;fillColor=none;routingCenterX=-0.5;rounded=1;shadow=0;strokeColor=#6c8ebf;strokeWidth=1;fontFamily=Ubuntu;fontSize=16;fontStyle=0;" vertex="1" parent="1">
          <mxGeometry x="240" y="190" width="80" height="130" as="geometry" />
        </mxCell>
        <mxCell id="8S_n0liuGnDVH2clSiCz-4" value="3" style="rounded=0;whiteSpace=wrap;html=1;shadow=0;strokeColor=#6c8ebf;strokeWidth=1;fontFamily=Ubuntu;fontSize=16;fontStyle=0;fillColor=#dae8fc;" vertex="1" parent="1">
          <mxGeometry x="130" y="280" width="60" height="30" as="geometry" />
        </mxCell>
        <mxCell id="8S_n0liuGnDVH2clSiCz-5" value="a" style="rounded=0;whiteSpace=wrap;html=1;shadow=0;strokeColor=#6c8ebf;strokeWidth=1;fontFamily=Ubuntu;fontSize=16;fontStyle=0;fillColor=#dae8fc;" vertex="1" parent="1">
          <mxGeometry x="250" y="280" width="60" height="30" as="geometry" />
        </mxCell>
        <mxCell id="8S_n0liuGnDVH2clSiCz-6" value="3[a]2[bc]" style="text;html=1;align=center;verticalAlign=middle;whiteSpace=wrap;rounded=0;fontFamily=Ubuntu;fontSize=16;fontStyle=0;" vertex="1" parent="1">
          <mxGeometry x="180" y="100" width="60" height="30" as="geometry" />
        </mxCell>
        <mxCell id="8S_n0liuGnDVH2clSiCz-7" value="bc" style="rounded=0;whiteSpace=wrap;html=1;shadow=0;strokeColor=#6c8ebf;strokeWidth=1;fontFamily=Ubuntu;fontSize=16;fontStyle=0;fillColor=#dae8fc;" vertex="1" parent="1">
          <mxGeometry x="250" y="240" width="60" height="30" as="geometry" />
        </mxCell>
        <mxCell id="8S_n0liuGnDVH2clSiCz-8" value="2" style="rounded=0;whiteSpace=wrap;html=1;shadow=0;strokeColor=#6c8ebf;strokeWidth=1;fontFamily=Ubuntu;fontSize=16;fontStyle=0;fillColor=#dae8fc;" vertex="1" parent="1">
          <mxGeometry x="130" y="240" width="60" height="30" as="geometry" />
        </mxCell>
        <mxCell id="8S_n0liuGnDVH2clSiCz-9" value="num_stack" style="text;html=1;align=center;verticalAlign=middle;whiteSpace=wrap;rounded=0;fontFamily=Ubuntu;fontSize=16;fontStyle=0;" vertex="1" parent="1">
          <mxGeometry x="115" y="320" width="90" height="40" as="geometry" />
        </mxCell>
        <mxCell id="8S_n0liuGnDVH2clSiCz-10" value="str_stack" style="text;html=1;align=center;verticalAlign=middle;whiteSpace=wrap;rounded=0;fontFamily=Ubuntu;fontSize=16;fontStyle=0;" vertex="1" parent="1">
          <mxGeometry x="235" y="320" width="90" height="40" as="geometry" />
        </mxCell>
      </root>
    </mxGraphModel>
  </diagram>
</mxfile>
